<svg xmlns="http://www.w3.org/2000/svg" width="21.748" height="21.746" viewBox="0 0 21.748 21.746">
  <g id="account" transform="translate(0.5 0.5)">
    <path id="Path_173" data-name="Path 173" d="M10.373,0a10.373,10.373,0,0,0,0,20.746q.469,0,.934-.042c.288-.026.574-.065.857-.115l.109-.019A10.373,10.373,0,0,0,10.373,0ZM9.54,20.018H9.515c-.269-.024-.536-.06-.8-.106L8.67,19.9q-.388-.069-.768-.171l-.061-.016c-.247-.067-.492-.145-.733-.231l-.075-.026c-.236-.087-.468-.184-.7-.289l-.085-.038c-.224-.1-.444-.22-.659-.343L5.5,18.739q-.318-.186-.622-.4l-.092-.064c-.2-.142-.394-.292-.584-.449l-.052-.046V14.868a3.808,3.808,0,0,1,3.8-3.8h4.841a3.808,3.808,0,0,1,3.8,3.8v2.916l-.046.038q-.29.242-.6.458l-.081.056q-.308.214-.632.4l-.082.046c-.219.124-.441.242-.668.348l-.079.035c-.23.106-.464.2-.7.291l-.069.025c-.242.087-.488.165-.736.233l-.06.015c-.254.067-.51.125-.769.171l-.045.007c-.265.046-.532.082-.8.106h-.024c-.277.024-.553.037-.833.037S9.816,20.042,9.54,20.018Zm7.749-2.875V14.868a4.5,4.5,0,0,0-4.495-4.495H7.953a4.5,4.5,0,0,0-4.495,4.495v2.274a9.682,9.682,0,1,1,13.831,0Zm0,0" stroke="#000" stroke-width="1"/>
    <path id="Path_174" data-name="Path 174" d="M163.458,64a3.458,3.458,0,1,0,3.458,3.458A3.458,3.458,0,0,0,163.458,64Zm0,6.224a2.766,2.766,0,1,1,2.766-2.766A2.766,2.766,0,0,1,163.458,70.224Zm0,0" transform="translate(-153.085 -61.234)" stroke="#000" stroke-width="1"/>
  </g>
</svg>
