<svg width="304" height="200" viewBox="0 0 304 200" fill="none" xmlns="http://www.w3.org/2000/svg">
<g opacity="0.5" clip-path="url(#clip0_5937_195985)">
<path d="M298.729 47.1545L293.975 70.2679L290.915 67.2752L285.709 71.0011L281.729 66.0432L272.807 72.5572L265.182 59.7536L256.677 64.7564L253.304 60.0828L242.504 66.1928L239.255 59.2099L246.826 22.3951L287.413 30.8095L298.729 47.1545Z" fill="#EBEBEB"/>
<path d="M287.412 30.8096L298.729 47.1545L284.65 44.2367L287.412 30.8096Z" fill="#DBDBDB"/>
<path d="M292.961 74.8915L285.992 108.803L231.321 97.4762L238.241 63.8286L241.49 70.8165L252.295 64.7065L255.663 69.375L264.173 64.3723L271.794 77.1759L280.721 70.6619L284.695 75.6197L289.906 71.8939L292.961 74.8915Z" fill="#EBEBEB"/>
<path d="M214.714 70.9163L159 74.3778L154.573 2.56871L195.945 0L211.132 12.7887L214.714 70.9163Z" fill="#EBEBEB"/>
<path d="M195.945 0L211.132 12.7887L196.785 13.6815L195.945 0Z" fill="#DBDBDB"/>
<path d="M180.52 48.3166L180.302 46.6956C179.74 43.3388 180.654 39.583 183.56 35.6576C186.183 32.1662 187.604 29.6723 187.445 26.8392C187.266 23.6471 185.155 21.632 181.226 21.7916C178.98 21.9087 176.823 22.7089 175.041 24.086L173.327 20.2304C175.314 18.6094 178.791 17.4123 182.095 17.2378C189.264 16.8387 192.751 21.0983 193.024 25.8517C193.263 30.1062 191.067 33.3034 188.275 37.0393C185.712 40.4459 184.872 43.254 185.235 46.4312L185.389 48.0573L180.52 48.3166ZM179.636 57.15C179.507 54.8356 180.972 53.1199 183.153 53.0001C185.334 52.8804 186.924 54.4167 187.053 56.736C187.172 58.9256 185.836 60.6913 183.531 60.821C181.33 60.9457 179.74 59.3396 179.616 57.15H179.636Z" fill="#DBDBDB"/>
<path d="M41.1633 36.1015L35.5596 33.5527L34.7796 35.2735C34.6645 35.5194 34.4848 35.7292 34.2598 35.8804C34.0349 36.0315 33.7732 36.1183 33.5029 36.1314C33.1949 36.1415 32.888 36.1715 32.5839 36.2212C32.3169 36.261 32.0442 36.2273 31.7948 36.1236C31.5455 36.02 31.3288 35.8503 31.168 35.6326L30.0701 34.0914L25.0676 37.6926L26.1654 39.2338C26.3181 39.4563 26.408 39.7161 26.4255 39.9857C26.443 40.2553 26.3875 40.5246 26.2648 40.7651C26.1232 41.0394 25.9955 41.3207 25.8823 41.608C25.7839 41.8613 25.6186 42.083 25.4041 42.249C25.1897 42.4151 24.9342 42.5194 24.6652 42.5507L22.7923 42.7352L23.3934 48.8852L25.2762 48.6956C25.5462 48.674 25.817 48.7266 26.0595 48.8479C26.3019 48.9692 26.5069 49.1545 26.6523 49.384C26.7318 49.5136 26.8162 49.6383 26.9056 49.763C26.9951 49.8877 27.0845 50.0074 27.1789 50.1271C27.3503 50.3366 27.4606 50.5896 27.4974 50.8582C27.5342 51.1267 27.4962 51.4002 27.3875 51.6484L26.6026 53.3841L32.2113 55.9379L32.9912 54.2071C33.1075 53.9614 33.2882 53.7522 33.514 53.6019C33.7399 53.4516 34.0022 53.366 34.2729 53.3542C34.5774 53.3416 34.8809 53.3116 35.182 53.2644C35.449 53.2246 35.7217 53.2584 35.971 53.362C36.2204 53.4657 36.437 53.6354 36.5978 53.853L37.6957 55.3942L42.7033 51.793L41.6054 50.2518C41.448 50.0314 41.3553 49.7711 41.3377 49.5005C41.3201 49.2298 41.3784 48.9596 41.506 48.7206C41.6444 48.4478 41.7688 48.1682 41.8786 47.8826C41.9742 47.6274 42.1387 47.404 42.3537 47.2375C42.5687 47.071 42.8256 46.9679 43.0957 46.9399L44.9785 46.7504L44.3725 40.6005L42.4897 40.785C42.2213 40.8087 41.9517 40.7574 41.7106 40.6368C41.4695 40.5162 41.2663 40.331 41.1235 40.1017C41.0391 39.972 40.9546 39.8473 40.8652 39.7226C40.7758 39.5979 40.6863 39.4732 40.592 39.3585C40.4217 39.1465 40.3123 38.8919 40.2755 38.622C40.2387 38.3522 40.276 38.0774 40.3833 37.8273L41.1633 36.1015ZM37.9839 41.7925C38.5648 42.6065 38.8923 43.5751 38.9249 44.5759C38.9575 45.5768 38.6937 46.5648 38.167 47.4151C37.6403 48.2654 36.8742 48.9398 35.9657 49.353C35.0572 49.7661 34.0471 49.8995 33.0631 49.7363C32.0791 49.573 31.1654 49.1204 30.4376 48.4358C29.7098 47.7511 29.2006 46.8651 28.9744 45.8899C28.7481 44.9146 28.815 43.8939 29.1666 42.9569C29.5181 42.0198 30.1386 41.2084 30.9494 40.6254C32.0365 39.8438 33.3882 39.5277 34.7074 39.7466C36.0265 39.9654 37.2051 40.7014 37.9839 41.7925V41.7925Z" fill="#EBEBEB"/>
<path d="M294.472 117.702L290.736 119.866L291.397 121.014C291.495 121.178 291.544 121.368 291.538 121.56C291.532 121.752 291.471 121.938 291.362 122.096C291.248 122.275 291.138 122.46 291.039 122.655C290.957 122.827 290.828 122.972 290.667 123.072C290.506 123.173 290.32 123.225 290.13 123.223H288.818V127.558H290.14C290.33 127.555 290.516 127.608 290.677 127.708C290.838 127.809 290.967 127.954 291.049 128.126C291.148 128.321 291.258 128.505 291.372 128.685C291.481 128.843 291.542 129.029 291.548 129.221C291.554 129.413 291.505 129.602 291.407 129.767L290.746 130.914L294.482 133.079L295.147 131.927C295.244 131.763 295.384 131.63 295.551 131.542C295.719 131.454 295.908 131.414 296.096 131.428H296.732C296.921 131.415 297.109 131.455 297.277 131.543C297.444 131.631 297.584 131.764 297.681 131.927L298.347 133.084L302.077 130.919L301.417 129.767C301.323 129.602 301.277 129.413 301.284 129.223C301.291 129.032 301.351 128.848 301.457 128.69C301.571 128.51 301.68 128.321 301.779 128.131C301.861 127.959 301.99 127.814 302.151 127.713C302.312 127.613 302.499 127.56 302.689 127.562H304.01V123.228H302.679C302.489 123.23 302.302 123.178 302.141 123.077C301.98 122.977 301.851 122.832 301.769 122.66C301.67 122.47 301.561 122.28 301.447 122.101C301.341 121.943 301.281 121.758 301.274 121.568C301.267 121.378 301.313 121.189 301.407 121.024L302.068 119.871L298.337 117.707L297.671 118.844C297.575 119.007 297.435 119.141 297.267 119.229C297.1 119.317 296.911 119.356 296.722 119.343H296.404H296.086C295.897 119.355 295.708 119.316 295.54 119.228C295.371 119.14 295.231 119.007 295.132 118.844L294.472 117.702ZM296.404 121.842C297.104 121.841 297.789 122.048 298.371 122.438C298.954 122.828 299.408 123.382 299.676 124.031C299.944 124.681 300.015 125.395 299.879 126.084C299.742 126.774 299.405 127.407 298.91 127.904C298.415 128.401 297.785 128.739 297.098 128.876C296.411 129.013 295.7 128.942 295.053 128.673C294.407 128.403 293.854 127.947 293.466 127.363C293.078 126.778 292.871 126.091 292.872 125.388C292.871 124.922 292.962 124.46 293.14 124.029C293.317 123.598 293.577 123.207 293.905 122.877C294.233 122.547 294.623 122.285 295.051 122.107C295.48 121.928 295.94 121.837 296.404 121.837V121.842Z" fill="#EBEBEB"/>
<path d="M52.4998 17.6717L49.077 20.3053L49.8668 21.3577C49.9847 21.5076 50.0571 21.6884 50.0756 21.8785C50.0941 22.0686 50.0579 22.26 49.9712 22.4301C49.8761 22.6242 49.7932 22.8241 49.7228 23.0286C49.6616 23.2087 49.5515 23.3681 49.4049 23.4889C49.2583 23.6096 49.0811 23.6868 48.8932 23.7119L47.5817 23.8815L48.1381 28.176L49.4496 28.0064C49.6405 27.9797 49.835 28.0076 50.0108 28.0871C50.1866 28.1665 50.3364 28.2941 50.4431 28.4553C50.5627 28.6288 50.6921 28.7953 50.8306 28.9541C50.9586 29.0954 51.0435 29.2706 51.0752 29.4589C51.1069 29.6473 51.0841 29.8408 51.0094 30.0165L50.5127 31.2435L54.4869 32.9044L54.9837 31.6774C55.0576 31.5014 55.1792 31.3497 55.3346 31.2395C55.49 31.1293 55.6731 31.065 55.863 31.0539L56.1809 31.019L56.4939 30.9691C56.6777 30.9343 56.8676 30.9508 57.0427 31.0168C57.2179 31.0827 57.3717 31.1956 57.4875 31.3432L58.2972 32.4056L61.72 29.7721L60.9202 28.7196C60.8047 28.5676 60.7337 28.3862 60.7153 28.1959C60.6969 28.0055 60.7317 27.8138 60.8159 27.6423C60.9101 27.4494 60.993 27.2512 61.0643 27.0487C61.1255 26.8686 61.2356 26.7092 61.3822 26.5885C61.5288 26.4677 61.706 26.3905 61.8939 26.3654L63.2054 26.1958L62.649 21.9014L61.3375 22.0709C61.1471 22.0982 60.9529 22.071 60.7771 21.9925C60.6014 21.9139 60.4513 21.7873 60.3439 21.627C60.2198 21.4475 60.0906 21.2779 59.9515 21.1282C59.8358 20.9839 59.7609 20.811 59.7346 20.6275C59.7084 20.4441 59.7318 20.257 59.8025 20.0858L60.2992 18.8588L56.325 17.1979L55.8282 18.4249C55.7533 18.6002 55.6315 18.7513 55.4763 18.8614C55.3211 18.9714 55.1385 19.0361 54.9489 19.0483L54.631 19.0783L54.3379 19.0882C54.154 19.123 53.9642 19.1066 53.789 19.0406C53.6139 18.9746 53.46 18.8617 53.3443 18.7142L52.4998 17.6717ZM54.9489 21.5273C55.6409 21.438 56.3438 21.5564 56.9688 21.8677C57.5938 22.179 58.113 22.6691 58.4609 23.2763C58.8088 23.8835 58.9698 24.5806 58.9236 25.2796C58.8774 25.9785 58.626 26.6481 58.2012 27.2038C57.7764 27.7595 57.1972 28.1764 56.5367 28.402C55.8762 28.6276 55.1639 28.6517 54.4897 28.4714C53.8156 28.291 53.2097 27.9142 52.7486 27.3885C52.2874 26.8628 51.9917 26.2117 51.8987 25.5175C51.8366 25.0542 51.8664 24.5832 51.9863 24.1315C52.1061 23.6798 52.3138 23.2563 52.5973 22.8855C52.8808 22.5146 53.2344 22.2037 53.638 21.9706C54.0416 21.7376 54.4871 21.5869 54.9489 21.5273Z" fill="#EBEBEB"/>
<path d="M26.9255 130.206C27.1121 125.384 27.0458 120.556 26.7268 115.741C26.016 105.799 24.5058 95.9314 22.2111 86.2338C20.9492 80.7771 19.3993 75.4103 17.7798 70.0484C17.7301 69.8838 17.4718 69.9287 17.5165 70.0983C22.5191 89.002 26.6225 108.504 26.3393 128.156C26.2598 133.643 25.624 139.054 25.1073 144.521C25.1073 144.666 25.3308 144.725 25.3656 144.576C26.394 139.882 26.7318 134.984 26.9255 130.206Z" fill="#EBEBEB"/>
<path d="M17.5165 70.0833C17.5165 70.0833 9.94555 89.386 11.6396 93.9049C13.3336 98.4238 16.8309 99.3914 16.8309 99.3914C16.8309 99.3914 12.196 106.035 15.435 112.265C18.674 118.495 25.8674 118.2 26.3642 125.263C26.3493 125.298 26.7467 95.7653 17.5165 70.0833Z" fill="#EBEBEB"/>
<path d="M25.5246 113.103C25.5368 113.071 25.5368 113.035 25.5246 113.003C24.5309 99.8249 22.0681 86.8001 18.1822 74.1732C18.1822 74.1383 18.1077 74.1483 18.1176 74.1732C19.6179 79.826 20.9426 85.5021 22.0918 91.2015C21.074 90.2334 19.8305 89.5371 18.4753 89.1765C18.4753 89.1765 18.4355 89.2064 18.4753 89.2164C19.899 89.7402 21.1791 90.5948 22.2111 91.7103C22.4296 92.8325 22.6482 93.9498 22.8519 95.072C21.1579 93.1717 18.8131 92.229 16.4633 91.3312C16.458 91.3335 16.4535 91.3373 16.4503 91.3422C16.4471 91.3471 16.4454 91.3528 16.4454 91.3586C16.4454 91.3644 16.4471 91.3701 16.4503 91.375C16.4535 91.3799 16.458 91.3837 16.4633 91.386C18.9124 92.3836 21.3467 93.6704 23.0059 95.7903C23.5822 98.9924 24.0889 102.206 24.5261 105.432C23.3029 104.145 21.7343 103.242 20.0103 102.833C19.9557 102.833 19.9259 102.898 19.9805 102.913C21.7514 103.436 23.3325 104.466 24.531 105.876H24.5608C24.7099 107.006 24.8523 108.142 24.9881 109.282C24.0418 108.478 22.9735 107.832 21.8236 107.367C21.7938 107.367 21.7739 107.402 21.8236 107.412C22.9971 107.922 24.0717 108.636 24.998 109.522C24.998 109.522 25.0228 109.522 25.0377 109.522C25.1619 110.604 25.2861 111.686 25.3954 112.769C23.6895 110.698 21.4757 109.11 18.9721 108.16C18.9615 108.16 18.9514 108.164 18.944 108.172C18.9365 108.179 18.9323 108.189 18.9323 108.2C18.9323 108.21 18.9365 108.221 18.944 108.228C18.9514 108.236 18.9615 108.24 18.9721 108.24C21.4442 109.334 23.6158 111.013 25.301 113.133C25.3196 113.156 25.3446 113.173 25.3729 113.182C25.4013 113.191 25.4316 113.191 25.46 113.183C25.624 114.844 25.773 116.504 25.8922 118.17C25.8922 118.195 25.932 118.195 25.932 118.17C25.8028 116.498 25.667 114.809 25.5246 113.103Z" fill="white"/>
<path d="M19.439 87.2761C18.0679 86.4194 16.5016 85.9283 14.8885 85.8496C14.8806 85.8496 14.873 85.8528 14.8674 85.8584C14.8619 85.864 14.8587 85.8716 14.8587 85.8795C14.8587 85.8875 14.8619 85.8951 14.8674 85.9007C14.873 85.9063 14.8806 85.9095 14.8885 85.9095C16.4481 86.2064 17.9615 86.7096 19.3894 87.4058C19.449 87.4208 19.4937 87.316 19.439 87.2761Z" fill="white"/>
<path d="M20.3581 107.711C19.3042 107.104 18.1439 106.706 16.9402 106.539C16.9005 106.539 16.8955 106.594 16.9402 106.604C18.1156 106.84 19.2525 107.24 20.3183 107.791C20.363 107.816 20.4028 107.736 20.3581 107.711Z" fill="white"/>
<path d="M46.8365 94.2391C43.6337 96.4619 40.6922 99.0421 38.0683 101.93C35.3623 104.988 33.2751 108.546 31.9231 112.405C29.0457 120.444 27.4985 128.902 27.3428 137.443C27.2463 142.173 27.6981 146.899 28.6891 151.524C28.6971 151.557 28.7177 151.587 28.7466 151.605C28.7755 151.624 28.8105 151.631 28.8444 151.625C28.8782 151.618 28.9083 151.599 28.9284 151.571C28.9485 151.543 28.9571 151.508 28.9524 151.474C27.7192 143.312 27.7662 135.007 29.0915 126.859C30.393 118.879 32.4348 110.19 37.492 103.701C40.2442 100.165 43.677 97.3864 47.07 94.5134C47.2488 94.3538 47.0203 94.1094 46.8365 94.2391Z" fill="#EBEBEB"/>
<path d="M28.4556 131.687C30.2787 128.727 32.4212 125.977 34.8442 123.487C38.6346 119.682 41.824 116.978 42.3207 114.464C42.8175 111.951 38.5253 110.095 38.5253 110.095C38.5253 110.095 43.7664 111.043 45.2021 108.833C46.6378 106.624 47.3283 93.8251 47.3283 93.8251C47.3283 93.8251 37.7901 100.663 33.3439 110.25C28.8977 119.836 28.4556 131.687 28.4556 131.687Z" fill="#EBEBEB"/>
<path d="M43.9055 105.831C43.2774 105.737 42.6407 105.715 42.0078 105.766C41.9333 105.766 41.9382 105.895 42.0078 105.9C42.6337 105.9 43.2646 105.87 43.8906 105.9C43.8977 105.898 43.9042 105.895 43.9093 105.889C43.9145 105.884 43.918 105.877 43.9195 105.87C43.9211 105.863 43.9206 105.855 43.9181 105.848C43.9156 105.841 43.9113 105.835 43.9055 105.831V105.831Z" fill="white"/>
<path d="M37.0549 118.245C36.0477 118.266 35.052 118.465 34.1139 118.834C34.1139 118.834 34.1139 118.884 34.1139 118.879C35.1075 118.644 36.0663 118.55 37.0499 118.38C37.0627 118.374 37.0737 118.365 37.0816 118.353C37.0895 118.342 37.094 118.328 37.0945 118.314C37.095 118.3 37.0916 118.286 37.0846 118.274C37.0775 118.262 37.0673 118.252 37.0549 118.245V118.245Z" fill="white"/>
<path d="M34.9982 113.956C34.58 113.952 34.1625 113.989 33.7513 114.065C33.7437 114.068 33.7371 114.073 33.7325 114.08C33.7279 114.086 33.7254 114.094 33.7254 114.103C33.7254 114.111 33.7279 114.119 33.7325 114.125C33.7371 114.132 33.7437 114.137 33.7513 114.14C34.1677 114.164 34.5855 114.146 34.9982 114.085C35.0153 114.085 35.0318 114.078 35.0439 114.066C35.056 114.054 35.0628 114.038 35.0628 114.02C35.0628 114.003 35.056 113.987 35.0439 113.975C35.0318 113.963 35.0153 113.956 34.9982 113.956V113.956Z" fill="white"/>
<path d="M0.491816 107.816C3.5963 108.872 6.5712 110.28 9.35935 112.011C12.2523 113.856 14.761 116.248 16.7465 119.053C20.9239 124.892 24.1223 131.376 26.2151 138.251C27.3823 142.058 28.1026 145.988 28.3612 149.963C28.3558 149.988 28.3417 150.011 28.3214 150.028C28.301 150.044 28.2756 150.053 28.2494 150.053C28.2233 150.053 28.1979 150.044 28.1775 150.028C28.1572 150.011 28.1431 149.988 28.1377 149.963C27.2608 143.072 25.3129 136.361 22.3651 130.076C19.4688 123.916 15.8175 117.362 10.2337 113.282C7.19339 111.063 3.77554 109.606 0.367621 108.07C0.188779 108.01 0.312975 107.756 0.491816 107.816Z" fill="#EBEBEB"/>
<path d="M23.9895 133.857C21.8313 131.885 19.464 130.158 16.9303 128.705C12.9858 126.505 9.78161 125.059 8.80295 123.138C7.82429 121.218 10.8696 118.724 10.8696 118.724C10.8696 118.724 6.84564 120.719 5.17646 119.248C3.50727 117.776 1.90735e-06 107.601 1.90735e-06 107.601C1.90735e-06 107.601 9.29477 110.918 15.0922 117.647C20.8896 124.375 23.9895 133.857 23.9895 133.857Z" fill="#EBEBEB"/>
<path d="M16.2745 124.49C15.3607 124.426 14.4431 124.539 13.5721 124.824C13.5721 124.824 13.5721 124.869 13.5721 124.864C14.4607 124.711 15.3586 124.618 16.2596 124.585C16.3242 124.585 16.3391 124.495 16.2745 124.49Z" fill="white"/>
<path d="M8.16708 113.816C7.75021 113.782 7.33065 113.805 6.92016 113.886C6.87545 113.886 6.89035 113.965 6.92016 113.96C7.33249 113.916 7.73488 113.931 8.14224 113.921C8.15489 113.921 8.16733 113.917 8.17742 113.909C8.18751 113.902 8.19463 113.891 8.19757 113.879C8.2005 113.866 8.19906 113.853 8.1935 113.842C8.18794 113.83 8.1786 113.821 8.16708 113.816V113.816Z" fill="white"/>
<path d="M35.9769 162.826H14.9978L17.9884 140.825L18.7535 135.184H32.2212L32.9862 140.825L35.9769 162.826Z" fill="#DBDBDB"/>
<path d="M32.9862 140.825H17.9884L18.7535 135.184H32.2212L32.9862 140.825Z" fill="#C7C7C7"/>
<path d="M34.1437 133.229H16.826V138.007H34.1437V133.229Z" fill="#DBDBDB"/>
<path d="M1.65925 162.826L39.4196 162.701L77.1799 162.661L152.701 162.577L228.221 162.656L265.981 162.701L303.742 162.826L265.981 162.946L228.221 162.991L152.701 163.07L77.1799 162.991L39.4196 162.946L1.65925 162.826Z" fill="#263238"/>
<path d="M153.694 200C232.365 200 296.141 192.984 296.141 184.328C296.141 175.673 232.365 168.657 153.694 168.657C75.0228 168.657 11.2471 175.673 11.2471 184.328C11.2471 192.984 75.0228 200 153.694 200Z" fill="#EBEBEB"/>
<path d="M120.534 181.735C119.376 182.129 86.1865 182.234 84.9147 181.446C84.4179 181.146 84.1348 176.293 83.9212 170.418C83.8765 169.151 83.8417 167.839 83.8119 166.512L81.164 148.736L103.355 148.591L105.447 166.373L105.362 170.283C105.362 170.283 118.09 175.944 119.391 176.972C120.693 177.999 121.691 181.341 120.534 181.735Z" fill="#EB9481"/>
<path d="M120.534 181.735C119.376 182.129 86.1865 182.234 84.9147 181.446C84.3285 181.076 84.0106 173.989 83.8317 166.512L105.422 166.372L105.337 170.283C105.337 170.283 118.065 175.944 119.366 176.972C120.668 177.999 121.691 181.341 120.534 181.735Z" fill="white"/>
<path d="M120.534 181.735C119.376 182.129 86.1865 182.234 84.9147 181.446C84.418 181.146 84.1348 176.293 83.9212 170.418L105.318 170.283C105.318 170.283 118.045 175.944 119.347 176.971C120.648 177.999 121.691 181.341 120.534 181.735Z" fill="#A6A6A6"/>
<path d="M120.052 180.403C114.488 180.283 92.0336 180.338 86.5243 180.647C86.4796 180.647 86.4796 180.677 86.5243 180.682C92.0386 180.917 114.493 180.682 120.052 180.493C120.171 180.488 120.171 180.403 120.052 180.403Z" fill="#263238"/>
<path d="M117.225 175.779C116.607 175.765 115.992 175.881 115.42 176.117C114.848 176.354 114.331 176.708 113.902 177.156C113.12 177.955 112.679 179.028 112.67 180.149C112.67 180.184 112.729 180.184 112.734 180.149C112.919 179.045 113.454 178.031 114.26 177.258C115.066 176.485 116.099 175.994 117.205 175.859C117.216 175.862 117.227 175.86 117.237 175.855C117.246 175.849 117.253 175.84 117.255 175.829C117.258 175.819 117.256 175.807 117.251 175.798C117.245 175.789 117.236 175.782 117.225 175.779V175.779Z" fill="#263238"/>
<path d="M107.493 170.831C105.268 170.807 102.69 171.605 101.309 173.44C101.259 173.51 101.358 173.585 101.423 173.55C103.367 172.519 105.416 171.7 107.533 171.106C107.566 171.097 107.594 171.076 107.613 171.048C107.631 171.019 107.639 170.985 107.634 170.951C107.629 170.917 107.612 170.887 107.586 170.865C107.56 170.842 107.527 170.831 107.493 170.831V170.831Z" fill="#263238"/>
<path d="M109.222 171.495C106.992 171.495 104.413 172.273 103.037 174.103C102.983 174.178 103.082 174.253 103.152 174.218C105.093 173.184 107.14 172.363 109.257 171.769C109.289 171.76 109.317 171.74 109.336 171.712C109.355 171.684 109.362 171.65 109.358 171.617C109.354 171.584 109.338 171.553 109.313 171.53C109.288 171.508 109.256 171.495 109.222 171.495V171.495Z" fill="#263238"/>
<path d="M110.941 172.163C108.715 172.163 106.137 172.936 104.756 174.772C104.706 174.842 104.806 174.916 104.87 174.882C106.815 173.851 108.863 173.032 110.981 172.438C111.014 172.429 111.042 172.408 111.06 172.379C111.079 172.351 111.087 172.316 111.082 172.283C111.077 172.249 111.06 172.218 111.034 172.196C111.008 172.174 110.975 172.163 110.941 172.163Z" fill="#263238"/>
<path d="M112.665 172.832C110.434 172.807 107.856 173.605 106.48 175.44C106.425 175.51 106.53 175.585 106.594 175.55C108.538 174.519 110.587 173.699 112.705 173.106C112.737 173.097 112.766 173.076 112.784 173.048C112.803 173.019 112.81 172.985 112.806 172.951C112.801 172.917 112.784 172.887 112.758 172.865C112.732 172.843 112.699 172.831 112.665 172.832V172.832Z" fill="#263238"/>
<path d="M87.9252 175.335C85.4413 175.335 85.4413 179.251 87.9252 179.236C90.4091 179.221 90.429 175.321 87.9252 175.335Z" fill="#263238"/>
<path d="M109.883 164.856C108.755 163.918 107.334 164.856 106.644 165.819C105.494 167.52 104.809 169.495 104.657 171.545C104.657 171.59 104.692 171.61 104.726 171.61C104.735 171.652 104.754 171.691 104.781 171.725C104.808 171.758 104.843 171.784 104.882 171.802C104.922 171.819 104.965 171.826 105.008 171.823C105.051 171.82 105.092 171.807 105.129 171.784C106.708 170.682 108.537 169.694 109.734 168.133C110.414 167.225 110.971 165.729 109.883 164.856ZM107.17 169.615C106.405 170.178 105.616 170.702 104.87 171.295C105.268 170.178 105.611 169.051 106.117 167.974C106.351 167.457 106.62 166.957 106.922 166.477C107.419 165.734 109.585 163.859 109.813 166.288C109.943 167.619 108.08 168.946 107.17 169.615Z" fill="#263238"/>
<path d="M99.1127 172.393C101.05 172.682 103.052 172.123 104.955 171.819C104.996 171.808 105.034 171.788 105.066 171.76C105.098 171.731 105.124 171.696 105.139 171.656C105.155 171.616 105.162 171.573 105.158 171.531C105.155 171.488 105.141 171.447 105.119 171.41C105.126 171.404 105.132 171.397 105.136 171.389C105.14 171.381 105.142 171.372 105.142 171.363C105.142 171.354 105.14 171.344 105.136 171.336C105.132 171.328 105.126 171.321 105.119 171.315C103.59 169.946 101.729 169.005 99.7238 168.587C98.5514 168.363 96.8921 168.687 96.7431 170.148C96.5642 171.525 97.9801 172.213 99.1127 172.393ZM97.7615 171.126C96.2712 169.21 99.1177 169.046 99.9722 169.245C100.527 169.385 101.071 169.561 101.602 169.774C102.688 170.226 103.751 170.734 104.786 171.295C103.842 171.39 102.913 171.56 101.974 171.689C100.851 171.839 98.5961 172.178 97.7615 171.126V171.126Z" fill="#263238"/>
<path d="M48.5355 66.572C48.5355 66.572 74.3035 110.584 74.994 113.677C76.0522 118.425 81.6608 165.315 81.6608 165.315L108.487 164.816C108.487 164.816 103.867 123.473 99.4903 109.851C96.3407 100.04 73.5981 67.4997 73.5981 67.4997L48.5355 66.572Z" fill="#37474F"/>
<path d="M106.048 160.706C102.198 160.676 88.5512 160.522 83.4244 161.001C83.3846 161.001 83.3896 161.07 83.4244 161.075C85.188 161.33 102.193 160.936 106.043 160.811C106.051 160.814 106.059 160.815 106.068 160.814C106.076 160.813 106.085 160.81 106.092 160.805C106.099 160.8 106.105 160.794 106.109 160.786C106.113 160.779 106.116 160.771 106.116 160.762C106.116 160.754 106.115 160.745 106.111 160.737C106.108 160.729 106.103 160.722 106.096 160.717C106.089 160.712 106.081 160.708 106.073 160.706C106.065 160.704 106.056 160.704 106.048 160.706V160.706Z" fill="#263238"/>
<path d="M52.932 70.612C54.621 73.2705 56.4095 75.8742 58.1283 78.5127C59.8472 81.1512 61.576 83.7898 63.2799 86.4233C66.6779 91.7436 69.9898 97.0988 73.2155 102.489C74.7898 104.987 76.1366 107.623 77.2395 110.365C78.2462 113.107 79.0027 115.935 79.4998 118.814C80.0264 121.702 80.3741 124.62 80.6971 127.538C81.0282 130.64 81.3743 133.744 81.7353 136.85C82.4408 143.204 83.1478 149.559 83.8566 155.913C83.941 156.691 84.0255 157.469 84.105 158.252C84.105 158.367 83.9112 158.387 83.8963 158.252C83.1064 151.943 82.4507 145.608 81.7353 139.299C81.3776 136.15 81.0216 133.003 80.6673 129.857C80.3344 126.929 80.0165 123.996 79.5644 121.088C79.1496 118.218 78.5185 115.384 77.6766 112.609C76.749 109.736 75.5061 106.976 73.9706 104.379C70.8658 98.9975 67.5771 93.7105 64.2884 88.4184C60.9997 83.1264 57.6216 77.7895 54.1541 72.5623C53.7268 71.9188 53.2946 71.2754 52.8475 70.642C52.8128 70.6071 52.9022 70.5622 52.932 70.612Z" fill="#263238"/>
<path d="M56.9808 184.328C55.7587 184.254 24.1932 171.415 23.3189 170.198C23.2799 170.126 23.2627 170.045 23.2692 169.964C23.2692 168.871 25.46 165.061 27.2882 160.053C27.4024 159.734 28.2171 158.247 29.3448 156.247C32.4795 150.766 37.9441 141.324 37.9441 141.324L58.5754 149.554L48.6994 164.392L47.1644 167.983C47.1644 167.983 56.8466 178.034 57.6614 179.455C58.4761 180.877 58.1979 184.398 56.9808 184.328Z" fill="#EB9481"/>
<path d="M56.9808 184.328C55.7587 184.254 24.1932 171.415 23.3189 170.198C23.2799 170.126 23.2627 170.045 23.2692 169.964C23.2692 168.871 25.46 165.061 27.2882 160.053C27.4024 159.734 28.2171 158.247 29.3448 156.247L48.7193 164.392L47.1842 167.983C47.1842 167.983 56.8665 178.034 57.6812 179.455C58.4959 180.877 58.1979 184.398 56.9808 184.328Z" fill="white"/>
<path d="M56.9808 184.328C55.7587 184.254 24.1932 171.415 23.3189 170.198C22.9811 169.734 24.3919 165.41 27.2931 160.053L47.1644 167.988C47.1644 167.988 56.8466 178.029 57.6663 179.46C58.486 180.892 58.1979 184.398 56.9808 184.328Z" fill="#A6A6A6"/>
<path d="M57.0304 182.912C51.9186 180.707 31.0836 172.298 25.8624 170.512C25.8177 170.512 25.8078 170.512 25.8624 170.542C30.8849 172.837 51.7844 181.076 57.0106 183.012C57.1099 183.037 57.1397 182.957 57.0304 182.912Z" fill="#263238"/>
<path d="M56.1362 177.56C55.5694 177.31 54.957 177.181 54.3379 177.181C53.7187 177.181 53.1064 177.31 52.5395 177.56C51.5203 178.008 50.7125 178.833 50.2841 179.864C50.2841 179.894 50.3289 179.919 50.3438 179.889C50.9294 178.933 51.808 178.193 52.8478 177.78C53.8877 177.367 55.0327 177.304 56.1114 177.6C56.1197 177.598 56.1269 177.592 56.1315 177.585C56.1361 177.577 56.1378 177.569 56.1362 177.56V177.56Z" fill="#263238"/>
<path d="M48.9677 169.31C46.916 168.447 44.2234 168.218 42.2611 169.4C42.1866 169.445 42.2611 169.55 42.3257 169.545C44.5132 169.322 46.7181 169.334 48.9031 169.58C48.9367 169.583 48.9705 169.575 48.9982 169.555C49.0258 169.535 49.0455 169.506 49.0534 169.473C49.0613 169.44 49.057 169.406 49.0412 169.376C49.0254 169.346 48.9993 169.322 48.9677 169.31Z" fill="#263238"/>
<path d="M50.314 170.577C48.2623 169.714 45.5697 169.485 43.6074 170.667C43.5329 170.712 43.6074 170.817 43.672 170.812C45.8594 170.586 48.0645 170.598 50.2494 170.846C50.283 170.85 50.3168 170.841 50.3445 170.822C50.3721 170.802 50.3917 170.773 50.3997 170.74C50.4076 170.707 50.4032 170.673 50.3875 170.642C50.3717 170.612 50.3456 170.589 50.314 170.577Z" fill="#263238"/>
<path d="M51.6652 171.844C49.6085 170.981 46.916 170.752 44.9586 171.934C44.8792 171.979 44.9587 172.084 45.0183 172.079C47.2056 171.853 49.4108 171.865 51.5956 172.113C51.6299 172.119 51.6652 172.112 51.6943 172.093C51.7235 172.074 51.7446 172.045 51.7533 172.011C51.762 171.977 51.7578 171.941 51.7415 171.91C51.7252 171.879 51.698 171.856 51.6652 171.844V171.844Z" fill="#263238"/>
<path d="M53.0115 173.111C50.9548 172.248 48.2672 172.019 46.3049 173.196C46.2254 173.246 46.3049 173.35 46.3645 173.345C48.5519 173.12 50.7571 173.132 52.9419 173.38C52.9762 173.386 53.0114 173.379 53.0406 173.36C53.0698 173.341 53.0908 173.311 53.0996 173.278C53.1083 173.244 53.1041 173.208 53.0878 173.177C53.0715 173.146 53.0443 173.123 53.0115 173.111V173.111Z" fill="#263238"/>
<path d="M29.1412 166.113C26.8212 165.185 25.3805 168.811 27.7104 169.739C30.0403 170.667 31.486 167.041 29.1412 166.113Z" fill="#263238"/>
<path d="M53.4139 164.672C52.7134 163.38 51.0591 163.699 50.0507 164.342C48.3519 165.485 46.9815 167.055 46.0764 168.896C46.0724 168.904 46.0703 168.913 46.0702 168.922C46.0701 168.931 46.0721 168.94 46.0759 168.948C46.0797 168.956 46.0853 168.964 46.0923 168.969C46.0993 168.975 46.1074 168.979 46.1162 168.981C46.1162 169.146 46.2254 169.34 46.4192 169.3C48.302 168.866 50.3636 168.642 52.0527 167.644C53.0214 167.066 54.0746 165.894 53.4139 164.672ZM49.1167 168.058C48.1977 168.293 47.2737 168.482 46.3645 168.752C47.1165 167.842 47.914 166.971 48.7541 166.143C49.1676 165.748 49.6074 165.381 50.0705 165.046C50.7909 164.547 53.5132 163.624 52.8177 165.963C52.4352 167.255 50.2146 167.779 49.1167 168.058V168.058Z" fill="#263238"/>
<path d="M40.6118 167.599C42.3009 168.597 44.3625 168.831 46.2403 169.27C46.4341 169.315 46.5633 169.121 46.5484 168.951C46.5577 168.95 46.5666 168.947 46.5742 168.941C46.5818 168.936 46.588 168.928 46.5919 168.92C46.5959 168.911 46.5977 168.902 46.597 168.893C46.5963 168.883 46.5933 168.874 46.5881 168.866C45.6845 167.022 44.314 165.448 42.6138 164.303C41.6203 163.654 39.9561 163.33 39.2506 164.617C38.5452 165.904 39.6232 167.016 40.6118 167.599ZM39.8368 165.914C39.1463 163.574 41.8637 164.502 42.584 165.006C43.0466 165.342 43.4848 165.71 43.8955 166.108C44.734 166.938 45.5298 167.811 46.2801 168.722C45.371 168.452 44.447 168.258 43.5279 168.023C42.4151 167.724 40.2144 167.225 39.8368 165.914Z" fill="#263238"/>
<path d="M50.304 163.564L27.2087 154.202C27.2087 154.202 55.8431 111.931 56.0518 108.784C56.2405 106 43.6621 81.7498 43.1702 74.6821C42.6337 67.0508 46.29 61.1503 50.3139 57.4843L74.1346 67.6543C74.1346 67.6543 71.6209 71.6895 67.6764 73.9389C67.6764 73.9389 79.8923 101.97 79.1968 110.589C78.5013 119.208 50.304 163.564 50.304 163.564Z" fill="#37474F"/>
<path d="M51.3274 159.155C47.989 157.714 48.9677 158.078 45.6094 156.661C43.9701 155.973 33.1899 151.469 31.5307 151.095C31.4959 151.095 31.4711 151.145 31.5058 151.165C32.9415 152.048 43.8111 156.362 45.4654 157.02C48.8485 158.357 47.8897 157.938 51.2877 159.235C51.2927 159.242 51.2995 159.247 51.3072 159.251C51.3149 159.254 51.3234 159.255 51.3319 159.255C51.3403 159.254 51.3484 159.251 51.3554 159.246C51.3624 159.241 51.368 159.235 51.3718 159.227C51.3756 159.22 51.3774 159.211 51.377 159.203C51.3766 159.194 51.3741 159.186 51.3697 159.179C51.3652 159.171 51.359 159.166 51.3516 159.161C51.3442 159.157 51.3359 159.155 51.3274 159.155V159.155Z" fill="#263238"/>
<path d="M71.5811 73.4252C69.1011 74.0056 66.6747 74.7965 64.3281 75.7894C64.3187 75.7926 64.3099 75.7978 64.3024 75.8044C64.295 75.8111 64.2888 75.8192 64.2845 75.8282C64.2801 75.8372 64.2775 75.847 64.2769 75.8571C64.2763 75.8671 64.2777 75.8771 64.2809 75.8866C64.2842 75.8961 64.2893 75.9049 64.2959 75.9124C64.3025 75.9199 64.3106 75.9261 64.3196 75.9305C64.3286 75.9349 64.3384 75.9375 64.3483 75.9381C64.3583 75.9387 64.3683 75.9373 64.3778 75.934C66.812 75.2208 69.286 74.5524 71.6805 73.7095C71.8643 73.6446 71.7699 73.3853 71.5811 73.4252Z" fill="#263238"/>
<path d="M68.7445 72.4575C68.513 72.8709 68.3089 73.2991 68.1335 73.7394C67.962 74.0735 67.8558 74.4375 67.8205 74.8117C67.8205 74.8866 67.9199 74.9015 67.9646 74.8566C68.2138 74.5573 68.415 74.2207 68.5607 73.8591C68.7644 73.465 68.973 73.076 69.1668 72.672C69.3009 72.3777 68.8985 72.1882 68.7445 72.4575Z" fill="#263238"/>
<path d="M69.0426 70.1932C69.1916 69.8241 69.3357 69.46 69.4897 69.0909C69.6437 68.7218 69.8374 68.3427 69.9865 67.9537C69.9865 67.8938 70.1057 67.9536 70.0809 67.9985C69.9318 68.3676 69.8374 68.7567 69.7232 69.1358C69.6089 69.5148 69.4798 69.8939 69.3556 70.273C69.1221 70.9762 68.8588 71.6745 68.5359 72.3579C68.9268 72.3774 69.3171 72.3093 69.6785 72.1583C70.0476 71.9212 70.3313 71.5716 70.4882 71.1608C70.6969 70.7518 70.8906 70.3328 71.1042 69.9238C71.3672 69.4816 71.5884 69.0158 71.765 68.5322C71.765 68.4724 71.8842 68.5322 71.8594 68.5771C71.5354 69.5994 71.1111 70.5869 70.5926 71.5249C70.369 71.889 70.1951 72.2731 69.7878 72.4127C69.3468 72.5365 68.8853 72.5688 68.4315 72.5075C68.3719 72.5075 68.3024 72.5075 68.3223 72.4177C68.5257 71.6647 68.7661 70.9223 69.0426 70.1932V70.1932Z" fill="#263238"/>
<path d="M68.0292 74.8517C68.8786 76.6523 69.6238 78.4479 70.4137 80.2435C71.2036 82.0391 71.904 83.7748 72.6144 85.5604C74.0352 89.1616 75.307 92.8326 76.4248 96.5336C76.9762 98.3691 77.4879 100.22 77.9449 102.085C78.4483 103.944 78.8169 105.838 79.0478 107.751C79.2471 109.661 79.0784 111.591 78.551 113.437C78.0031 115.262 77.3 117.036 76.4496 118.739C75.928 119.817 75.7541 119.672 76.0025 119.128C76.7129 117.582 78.5758 112.898 78.4417 108.963C78.333 107.079 78.0435 105.21 77.5773 103.382C77.1434 101.496 76.6549 99.626 76.1118 97.7705C75.0536 94.1095 73.7968 90.5233 72.5052 86.9421C71.7799 84.9469 71.0148 82.9518 70.2696 80.9567C69.5245 78.9616 68.7793 77.1261 67.9447 74.9215C67.9199 74.8317 68.0043 74.7968 68.0292 74.8517Z" fill="#263238"/>
<path d="M50.4978 68.9012C50.9101 68.7466 51.4913 69.001 51.9086 69.0708C52.4491 69.1629 52.9951 69.2179 53.543 69.2354C54.0851 69.2546 54.6279 69.2362 55.1675 69.1805C55.7109 69.1664 56.2435 69.0247 56.7224 68.7665C57.5083 68.1918 58.1819 67.4766 58.7095 66.6567C59.3383 65.819 59.8576 64.9037 60.2545 63.9334C60.2545 63.8735 60.3589 63.9334 60.339 63.9733C60.1651 64.5269 60.036 65.0856 59.8422 65.6292C59.628 66.14 59.3721 66.6322 59.0772 67.1006C58.5989 68.0433 57.8915 68.8496 57.0205 69.4449C56.0617 69.9935 54.8297 69.9437 53.7616 69.8988C53.1421 69.8625 52.5262 69.7808 51.9186 69.6544C51.4814 69.5596 50.7461 69.4898 50.468 69.1057C50.4549 69.091 50.4452 69.0736 50.4395 69.0547C50.4339 69.0359 50.4324 69.016 50.4352 68.9965C50.4381 68.977 50.4452 68.9583 50.456 68.9419C50.4668 68.9254 50.481 68.9115 50.4978 68.9012V68.9012Z" fill="#263238"/>
<path d="M33.801 149.768C37.5964 143.996 41.3222 138.176 44.9785 132.311C48.6348 126.445 52.2415 120.535 55.7984 114.579C56.6479 113.158 57.6266 111.741 58.173 110.165C58.7692 108.454 58.4313 106.793 57.8948 105.117C56.8817 102.06 55.6975 99.0627 54.3478 96.1395C53.0164 93.1917 51.5807 90.2938 50.1699 87.3859C48.759 84.478 47.2836 81.6051 46.1956 78.5725C45.2021 75.6746 44.7997 72.672 45.5747 69.6693C46.3496 66.6667 48.0188 64.0132 49.7625 61.5143C50.2196 60.8559 50.6915 60.2025 51.1535 59.5192C51.1883 59.4693 51.2628 59.5192 51.228 59.579C49.3055 62.1827 47.4326 64.9409 46.3049 67.9984C45.7286 69.5055 45.4062 71.0984 45.3511 72.7119C45.3417 74.3496 45.595 75.9782 46.1012 77.5351C47.0352 80.5676 48.5106 83.4356 49.8867 86.2886C51.2628 89.1416 52.7333 92.0944 54.0895 95.0322C55.4886 97.9889 56.7323 101.017 57.8153 104.105C58.2773 105.477 58.8089 106.913 58.7692 108.384C58.7344 109.996 57.9693 111.447 57.1745 112.804C53.697 118.714 50.1351 124.555 46.5086 130.361C42.8821 136.166 39.1513 141.972 35.3758 147.718L33.945 149.888C33.8705 149.978 33.7413 149.873 33.801 149.768Z" fill="#263238"/>
<path d="M75.456 40.7701C77.6071 45.5085 88.4717 52.0375 93.5587 52.7408C97.215 53.2396 108.333 53.4191 112.143 52.8356C116.614 52.1472 113.196 40.0519 110.559 40.3661C103.306 41.214 97.1455 42.1617 95.208 42.1617C92.8433 42.1617 80.0512 38.0418 78.5112 37.4582C74.7357 36.0467 74.2389 38.0817 75.456 40.7701Z" fill="#EB9481"/>
<path d="M75.5256 42.0321C78.2479 46.0772 87.2943 52.691 87.2943 52.691L88.5512 49.8978L92.7092 40.6604C92.7092 40.6604 84.3981 38.0419 78.9285 36.8448C78.2849 36.6977 77.6302 36.6043 76.9712 36.5655C73.4788 36.3759 73.1758 38.5406 75.5256 42.0321Z" fill="#FFC727"/>
<path d="M75.5256 42.0321C78.2479 46.0772 87.2943 52.691 87.2943 52.691L88.5512 49.8978C85.178 45.9625 79.9668 40.0021 76.9712 36.5755C73.4788 36.3759 73.1758 38.5406 75.5256 42.0321Z" fill="#263238"/>
<path d="M85.6649 50.8156C86.3554 49.1148 89.4255 42.2666 90.1905 40.84C90.2402 40.7403 90.3197 40.7503 90.275 40.84C88.9433 44.2457 87.4275 47.5758 85.7344 50.8156C85.7145 50.8755 85.6351 50.8555 85.6649 50.8156Z" fill="#263238"/>
<path d="M109.227 40.4908C113.639 39.9122 119.098 38.9196 123.723 40.8898C124.243 41.0944 124.678 41.4686 124.96 41.9522C127.047 42.8001 127.275 44.0421 127.275 44.0421C128.979 45.4287 129.039 46.7355 129.039 46.7355C129.039 46.7355 131.483 47.733 131.11 49.3391C130.703 51.1148 127.355 49.3391 124.92 49.4838C119.332 49.8329 111.507 51.8929 109.893 52.1522L109.227 40.4908Z" fill="#EB9481"/>
<path d="M118.81 45.7181C120.444 45.6059 122.084 45.6059 123.718 45.7181C125.498 45.9422 127.258 46.3007 128.984 46.7904C128.995 46.7944 129.008 46.7938 129.018 46.7886C129.029 46.7835 129.037 46.7743 129.041 46.763C129.045 46.7518 129.045 46.7394 129.039 46.7287C129.034 46.7179 129.025 46.7096 129.014 46.7057C125.771 45.4283 122.242 45.0695 118.81 45.6682C118.731 45.6582 118.731 45.7231 118.81 45.7181Z" fill="#263238"/>
<path d="M117.772 40.5357C120.499 40.6754 122.203 41.1143 124.945 41.9423V41.9124C121.925 40.6455 120.688 40.5257 117.757 40.416C117.663 40.4559 117.668 40.5357 117.772 40.5357Z" fill="#263238"/>
<path d="M118.214 50.3318C117.504 50.666 117.677 51.0401 119.034 51.3543C120.39 51.6685 126.028 51.7633 125.83 53.7384C125.631 55.7136 117.677 55.4642 115.457 54.7659C113.236 54.0676 109.893 52.1523 109.893 52.1523C111.468 51.888 115.164 50.8854 118.214 50.3318Z" fill="#EB9481"/>
<path d="M81.3627 48.3217C81.328 49.1746 81.2485 50.0425 81.1293 50.9054C81.1293 50.8704 81.1293 50.8405 81.164 50.8106C81.328 50.3617 81.4919 49.9028 81.6906 49.4689C81.6906 49.4689 81.7403 49.4689 81.7353 49.4689C81.6399 49.9444 81.4967 50.4089 81.3081 50.8555C81.2187 51.07 81.1342 51.2795 81.0398 51.4889C80.9802 51.873 80.9107 52.2521 80.8362 52.6311C80.6871 53.3444 80.0165 56.377 79.8426 56.8907C79.8128 56.9954 79.6836 56.9705 79.6936 56.8508C79.7283 56.2922 80.2897 53.1349 80.404 52.4167C80.6259 51.0299 80.9227 49.6562 81.2932 48.3017C81.318 48.2768 81.3677 48.2968 81.3627 48.3217Z" fill="#263238"/>
<path d="M76.1962 71.001C74.8698 71.6844 73.1609 72.7468 65.4608 71.2255C64.964 71.1257 64.497 71.006 64.0102 70.8614C56.792 68.6867 48.1132 60.1626 47.6413 59.5591C47.6413 59.5591 59.1119 40.8898 73.7819 35.0192C75.5951 34.296 78.5957 35.6926 80.24 37.4333C80.8312 38.0568 82.1178 42.6405 81.626 46.3514C81.1342 50.0623 77.5177 70.3177 76.1962 71.001Z" fill="#FFC727"/>
<path d="M75.1629 46.1819C75.2183 46.9708 75.1083 47.7626 74.84 48.5062C74.777 47.717 74.8873 46.9236 75.1629 46.1819V46.1819Z" fill="white"/>
<path d="M70.1603 58.8958C70.1919 59.2884 70.1786 59.6833 70.1206 60.0729C70.0728 60.4654 69.9777 60.8506 69.8375 61.2201C69.8032 60.8259 69.8166 60.4289 69.8772 60.038C69.928 59.6476 70.023 59.2644 70.1603 58.8958V58.8958Z" fill="white"/>
<path d="M61.6604 49.2843C61.7169 50.0732 61.6068 50.8653 61.3375 51.6086C61.2755 50.8195 61.3857 50.0263 61.6604 49.2843Z" fill="white"/>
<path d="M78.4367 58.2473C78.4684 58.6416 78.4551 59.0382 78.397 59.4294C78.3491 59.8219 78.2541 60.2071 78.1138 60.5766C78.0796 60.1824 78.0929 59.7855 78.1535 59.3945C78.2037 59.0025 78.2988 58.6175 78.4367 58.2473V58.2473Z" fill="white"/>
<path d="M67.5224 47.6383C67.9133 47.6049 68.3067 47.6166 68.6948 47.6732C69.0859 47.723 69.4696 47.8201 69.8374 47.9625C69.0517 48.0192 68.2628 47.9087 67.5224 47.6383V47.6383Z" fill="white"/>
<path d="M57.8749 56.8209C58.6607 56.7653 59.4493 56.8757 60.1899 57.1451C59.4039 57.2083 58.6137 57.0977 57.8749 56.8209V56.8209Z" fill="white"/>
<path d="M69.2413 66.7615C70.0271 66.7048 70.816 66.8153 71.5563 67.0857C70.7703 67.148 69.9803 67.0374 69.2413 66.7615V66.7615Z" fill="white"/>
<path d="M54.8992 63.1504C55.685 63.0947 56.4736 63.2052 57.2142 63.4746C56.4283 63.5368 55.6382 63.4262 54.8992 63.1504V63.1504Z" fill="white"/>
<path d="M75.0884 37.2439C75.8742 37.1882 76.6628 37.2987 77.4034 37.5681C76.6177 37.6237 75.829 37.5132 75.0884 37.2439V37.2439Z" fill="white"/>
<path d="M72.2816 40.426C72.0305 40.7291 71.7435 41.0005 71.4271 41.234C71.1193 41.473 70.7861 41.6771 70.4336 41.8426C70.6831 41.5414 70.9665 41.2702 71.2781 41.0345C71.5889 40.7946 71.9255 40.5905 72.2816 40.426V40.426Z" fill="white"/>
<path d="M56.9857 49.4689C56.7315 49.7694 56.443 50.0389 56.1263 50.2719C55.8216 50.5154 55.4878 50.7198 55.1327 50.8804C55.3883 50.5812 55.6766 50.3118 55.9922 50.0774C56.2976 49.8349 56.6312 49.6306 56.9857 49.4689V49.4689Z" fill="white"/>
<path d="M76.0869 53.5488C75.8328 53.8509 75.5444 54.1221 75.2275 54.3569C74.9221 54.5993 74.5885 54.8037 74.234 54.9654C74.4881 54.6633 74.7765 54.3921 75.0934 54.1573C75.4005 53.9173 75.7338 53.7131 76.0869 53.5488Z" fill="white"/>
<path d="M63.7171 61.3698C63.463 61.6718 63.1745 61.943 62.8577 62.1778C62.5517 62.4195 62.2182 62.6238 61.8641 62.7863C62.1182 62.4842 62.4067 62.213 62.7235 61.9783C63.0307 61.7382 63.364 61.5341 63.7171 61.3698Z" fill="white"/>
<path d="M80.8262 42.865C80.5721 43.167 80.2836 43.4382 79.9668 43.673C79.659 43.912 79.3258 44.1161 78.9732 44.2815C79.2274 43.9795 79.5158 43.7083 79.8327 43.4735C80.1386 43.2317 80.4721 43.0275 80.8262 42.865V42.865Z" fill="white"/>
<path d="M80.5679 51.9278C80.2671 51.6727 79.997 51.3831 79.7631 51.0649C79.5213 50.7585 79.3178 50.4235 79.157 50.0674C79.4589 50.3195 79.7292 50.6076 79.9618 50.9253C80.1992 51.2366 80.4024 51.5727 80.5679 51.9278V51.9278Z" fill="white"/>
<path d="M52.9966 58.1726C52.6957 57.9174 52.4256 57.6278 52.1918 57.3097C51.9527 57.0013 51.7494 56.6667 51.5857 56.3121C51.8866 56.5673 52.1566 56.8569 52.3905 57.175C52.6313 57.4822 52.8347 57.8171 52.9966 58.1726V58.1726Z" fill="white"/>
<path d="M77.2146 65.5993C76.9127 65.3472 76.6425 65.0591 76.4098 64.7414C76.1718 64.4324 75.9685 64.0978 75.8038 63.7439C76.1046 63.999 76.3747 64.2886 76.6086 64.6068C76.8483 64.9129 77.0517 65.246 77.2146 65.5993Z" fill="white"/>
<path d="M65.0783 44.4263C64.7775 44.1728 64.5074 43.8849 64.2735 43.5684C64.0365 43.2586 63.8333 42.9242 63.6674 42.5708C63.9693 42.823 64.2396 43.111 64.4722 43.4287C64.7092 43.7385 64.9124 44.0729 65.0783 44.4263V44.4263Z" fill="white"/>
<path d="M65.2919 69.8289C64.9911 69.5738 64.721 69.2842 64.4871 68.9661C64.2488 68.6572 64.0455 68.3226 63.8811 67.9685C64.183 68.2207 64.4532 68.5087 64.6858 68.8264C64.9249 69.1365 65.1282 69.4729 65.2919 69.8289V69.8289Z" fill="white"/>
<path d="M67.3535 54.8457C67.0555 54.5891 66.7872 54.2996 66.5537 53.9828C66.3112 53.6768 66.1076 53.3417 65.9476 52.9852C66.2469 53.2405 66.5154 53.5301 66.7475 53.8481C66.989 54.1548 67.1925 54.4897 67.3535 54.8457V54.8457Z" fill="white"/>
<path d="M77.5525 42.4062C75.6796 42.057 73.921 38.1715 73.6974 35.558C73.6974 35.3784 74.5718 33.9569 75.5703 32.1762C76.1764 31.0939 76.8172 29.8719 77.3289 28.7147C77.4332 28.4803 78.0443 29.2734 78.0443 29.2734L79.3756 30.2709L83.7721 33.6576C82.7252 34.919 81.836 36.3042 81.1243 37.7825C81.054 37.9427 81.0007 38.1099 80.9653 38.2813C80.9634 38.3095 80.9634 38.3378 80.9653 38.3661C80.6921 39.3537 79.3558 42.7404 77.5525 42.4062Z" fill="#EB9481"/>
<path d="M80.9653 38.3062C80.9634 38.3345 80.9634 38.3628 80.9653 38.391C80.7043 38.3142 80.4501 38.2157 80.2053 38.0967C75.3915 35.8323 77.5127 29.3582 77.5127 29.3582L79.4005 30.2959L83.797 33.6826C82.75 34.9439 81.8608 36.3292 81.1491 37.8074C81.0703 37.9667 81.0087 38.1339 80.9653 38.3062V38.3062Z" fill="#263238"/>
<path d="M88.8244 19.8763C88.8244 19.8763 91.0251 21.2779 91.0351 23.7718C91.045 26.2657 90.0415 28.7047 89.8329 28.7945C89.6242 28.8843 88.8244 19.8763 88.8244 19.8763Z" fill="#263238"/>
<path d="M77.9051 21.1732C76.5837 23.7918 76.6533 32.0466 78.3026 34.1714C80.6971 37.2538 85.3072 38.3162 88.0941 35.2687C90.7917 32.3159 90.5135 21.5623 88.5909 19.5572C85.794 16.5944 79.8625 17.2977 77.9051 21.1732Z" fill="#EB9481"/>
<path d="M84.9197 27.782C84.9197 27.782 84.875 27.8119 84.88 27.8319C84.9098 28.3955 84.8502 29.0439 84.3484 29.2434C84.3484 29.2434 84.3484 29.2783 84.3484 29.2733C84.9694 29.1736 85.0389 28.3107 84.9197 27.782Z" fill="#263238"/>
<path d="M84.408 27.2084C83.5039 27.1585 83.4741 28.9741 84.3136 29.019C85.1532 29.0639 85.1631 27.2483 84.408 27.2084Z" fill="#263238"/>
<path d="M87.9848 27.7621C87.9848 27.7621 88.0296 27.7621 88.0296 27.812C87.9997 28.3756 88.0643 29.024 88.571 29.2185C88.571 29.2185 88.571 29.2534 88.571 29.2484C87.9451 29.1537 87.8706 28.2908 87.9848 27.7621Z" fill="#263238"/>
<path d="M88.4965 27.1835C89.3957 27.1286 89.4404 28.9442 88.6058 28.994C87.7712 29.0439 87.7414 27.2284 88.4965 27.1835Z" fill="#263238"/>
<path d="M83.8417 25.8268C84.0791 25.759 84.3129 25.6791 84.5422 25.5874C84.8031 25.54 85.0408 25.4066 85.2178 25.2083C85.2607 25.1357 85.2786 25.0509 85.2688 24.9671C85.2589 24.8832 85.2218 24.805 85.1631 24.7444C85.0287 24.6418 84.8694 24.5771 84.7018 24.5569C84.5341 24.5368 84.3641 24.5619 84.2093 24.6297C83.8741 24.7198 83.5839 24.9312 83.3946 25.2233C83.3568 25.2927 83.3396 25.3716 83.3451 25.4506C83.3506 25.5296 83.3785 25.6053 83.4256 25.6688C83.4727 25.7323 83.5369 25.781 83.6106 25.809C83.6844 25.837 83.7646 25.8432 83.8417 25.8268V25.8268Z" fill="#263238"/>
<path d="M89.1125 26.6298C88.8709 26.5756 88.6321 26.509 88.3972 26.4303C88.1354 26.3955 87.8925 26.2745 87.7066 26.0861C87.6588 26.0168 87.6357 25.9332 87.6411 25.849C87.6465 25.7648 87.6801 25.6849 87.7364 25.6223C87.8646 25.5123 88.0198 25.439 88.1859 25.41C88.352 25.3811 88.5228 25.3975 88.6803 25.4577C89.0202 25.5284 89.3214 25.7241 89.5249 26.0063C89.5674 26.0731 89.5897 26.1509 89.5891 26.2302C89.5884 26.3095 89.5648 26.3869 89.5211 26.453C89.4774 26.5191 89.4155 26.571 89.343 26.6023C89.2704 26.6337 89.1904 26.6433 89.1125 26.6298V26.6298Z" fill="#263238"/>
<path d="M83.6479 33.114C83.7821 33.2486 83.9112 33.4282 84.1149 33.4481C84.3238 33.448 84.5303 33.4038 84.721 33.3185C84.721 33.3185 84.7558 33.3185 84.721 33.3484C84.6396 33.458 84.53 33.5433 84.404 33.5952C84.278 33.647 84.1402 33.6634 84.0056 33.6427C83.8921 33.6116 83.7902 33.5478 83.7125 33.4591C83.6348 33.3705 83.5847 33.2608 83.5685 33.1439C83.5645 33.1333 83.5649 33.1216 83.5696 33.1113C83.5742 33.101 83.5828 33.093 83.5933 33.089C83.6038 33.085 83.6155 33.0854 83.6258 33.0901C83.636 33.0948 83.644 33.1034 83.6479 33.114Z" fill="#263238"/>
<path d="M86.8969 30.7098C86.8969 30.7098 86.9217 31.5477 86.8969 31.9418C86.1336 31.8605 85.3626 31.8873 84.6067 32.0216C84.4279 32.0615 84.4478 31.9168 84.6514 31.8221C85.2603 31.5427 85.9385 31.4524 86.5988 31.5627C86.6386 31.458 86.5342 30.2659 86.5988 30.2709C86.8993 30.3301 87.1902 30.4308 87.4632 30.5701C87.4632 28.8144 87.185 27.0787 87.2099 25.323C87.2099 25.2631 87.3043 25.2532 87.3142 25.323C87.6672 27.1803 87.8337 29.0685 87.811 30.9592C87.8159 31.1737 87.0459 30.7896 86.8969 30.7098Z" fill="#263238"/>
<path d="M85.7791 31.6426C85.5811 32.1656 85.2137 32.6065 84.7359 32.8945C83.9858 33.1988 83.7423 32.5155 84.4974 31.897C84.8934 31.696 85.3368 31.608 85.7791 31.6426Z" fill="#263238"/>
<path d="M84.9992 32.7399C84.9199 32.8047 84.8311 32.8569 84.7359 32.8945C84.0454 33.1738 83.7721 32.6202 84.3285 32.0615C84.7061 32.0915 85.1383 32.2311 84.9992 32.7399Z" fill="#FF99BA"/>
<path d="M77.5276 28.2309C78.4367 28.5102 79.48 25.7669 79.778 24.7395C80.0364 23.8117 80.3344 20.8639 80.3791 20.6594C80.4238 20.4549 84.3534 23.2681 86.6286 22.5997C88.9039 21.9313 90.4489 19.8614 90.4836 18.8988C90.5184 17.9361 87.6719 15.4921 85.2128 15.3674C82.7537 15.2427 79.4203 18.3601 79.4203 18.3601C79.823 17.9013 80.1885 17.4109 80.5133 16.8937C80.4735 16.7839 78.8838 17.4224 78.5907 18.5596C78.5907 18.5596 78.9087 17.1281 78.7894 17.1032C78.6702 17.0782 77.4332 18.3002 77.7114 19.228C77.7114 19.228 76.2807 20.4699 76.1515 21.8316C76.0224 23.1932 76.4595 27.9017 77.5276 28.2309Z" fill="#263238"/>
<path d="M88.2581 22.0809C87.5814 22.4493 86.8527 22.7117 86.0971 22.859C85.2489 22.935 84.3953 22.7979 83.6132 22.46C82.8252 22.1544 82.0933 21.7195 81.4472 21.1732C80.8759 20.7043 80.3642 20.1307 79.7532 19.7117C79.5992 19.602 79.4253 19.8265 79.5197 19.9661C80.5391 21.4119 81.9955 22.4893 83.6728 23.0386C84.4518 23.2936 85.2834 23.3413 86.0862 23.1769C86.8891 23.0125 87.6357 22.6418 88.2531 22.1009C88.2531 22.1009 88.268 22.0809 88.2581 22.0809Z" fill="#263238"/>
<path d="M78.4765 27.9865C78.4765 27.9865 77.0656 25.1136 75.7938 25.5774C74.5221 26.0413 75.2971 30.0165 76.6036 30.7448C76.7636 30.8487 76.9429 30.9192 77.1308 30.9519C77.3186 30.9846 77.511 30.9789 77.6966 30.9351C77.8821 30.8913 78.057 30.8103 78.2106 30.6971C78.3643 30.5838 78.4936 30.4406 78.5907 30.2759L78.4765 27.9865Z" fill="#EB9481"/>
<path d="M76.0472 26.7096C76.0472 26.7096 76.0174 26.7096 76.0472 26.7495C76.9513 27.2882 77.3189 28.2458 77.5375 29.2434C77.4964 29.1378 77.4329 29.0424 77.3514 28.9639C77.2699 28.8853 77.1724 28.8255 77.0657 28.7885C76.9589 28.7515 76.8454 28.7382 76.733 28.7496C76.6206 28.761 76.5121 28.7967 76.4148 28.8543C76.385 28.8543 76.4148 28.9092 76.4148 28.9092C76.5925 28.8815 76.7744 28.9097 76.9355 28.9901C77.0965 29.0705 77.2288 29.1991 77.314 29.3581C77.4562 29.6245 77.5694 29.9054 77.6518 30.1961C77.6816 30.2908 77.8455 30.2659 77.8306 30.1611C78.0442 28.9192 77.3487 27.0388 76.0472 26.7096Z" fill="#263238"/>
<path d="M69.1618 40.815C68.1683 46.4662 74.2687 65.5045 78.1784 69.0608C83.9957 74.3479 94.751 77.8243 98.6507 78.9566C100.35 79.4553 105.049 67.4498 103.33 66.6567C99.6492 64.9758 88.2134 61.3846 87.1254 60.4868C86.0375 59.589 79.4799 50.0773 76.5589 44.6008C72.6492 37.2288 69.6536 37.957 69.1618 40.815Z" fill="#EB9481"/>
<path d="M100.434 65.5994C100.434 65.5994 105.511 66.9012 108.785 67.9037C110.613 68.4673 113.663 69.7093 114.821 70.7368C116.55 72.278 122.799 79.8195 121.011 81.3807C119.391 82.7972 114.841 75.6298 114.841 75.6298C114.841 75.6298 120.067 82.4531 117.821 83.7948C115.576 85.1365 111.468 76.353 111.468 76.353C111.468 76.353 116.679 83.4855 114.13 84.4981C112.203 85.2612 108.07 77.5152 108.07 77.5152C108.07 77.5152 112.511 83.6751 110.554 84.5479C108.398 85.5156 104.14 78.6025 104.14 78.6025C98.8147 79.9841 95.6949 78.4529 93.6432 77.1062C93.1613 76.777 100.434 65.5994 100.434 65.5994Z" fill="#EB9481"/>
<path d="M113.182 73.1508C113.827 73.9289 114.483 74.717 115.054 75.55C115.626 76.3829 116.167 77.2408 116.659 78.1237C117.325 79.2656 117.859 80.4806 118.249 81.7448C117.394 79.5502 115.392 76.5326 114.821 75.6996C114.25 74.8666 113.718 74.0038 113.152 73.1708C113.137 73.1508 113.167 73.1309 113.182 73.1508Z" fill="#263238"/>
<path d="M110.146 75.1709C111.249 76.0487 113.559 79.3107 114.448 81.5004C114.488 81.5901 114.448 81.5851 114.384 81.5004C113.688 80.418 110.867 76.2283 110.121 75.1858C110.106 75.1709 110.131 75.1559 110.146 75.1709Z" fill="#263238"/>
<path d="M107.23 76.4478C108.6 77.8909 109.683 79.5839 110.419 81.4356C110.454 81.5254 110.385 81.5104 110.33 81.4356C109.302 79.7547 108.507 78.4429 107.175 76.4927C107.156 76.4478 107.2 76.4029 107.23 76.4478Z" fill="#263238"/>
<path d="M74.7059 41.2291C70.1703 34.7898 67.4579 37.174 68.367 44.1669C69.2214 50.7058 71.5017 58.4968 71.5017 58.4968L82.9276 52.9304C82.9276 52.9304 77.5922 45.354 74.7059 41.2291Z" fill="#FFC727"/>
<path d="M77.463 43.7628C77.6136 44.1265 77.722 44.5064 77.7859 44.895C77.8557 45.2849 77.8807 45.6816 77.8605 46.0772C77.7114 45.7116 77.6048 45.33 77.5425 44.9399C77.4686 44.5522 77.4419 44.157 77.463 43.7628V43.7628Z" fill="white"/>
<path d="M70.6919 47.6783C71.421 47.3805 72.2056 47.2444 72.992 47.2793C72.6296 47.4288 72.2512 47.536 71.8643 47.5985C71.4781 47.6725 71.0845 47.6993 70.6919 47.6783V47.6783Z" fill="white"/>
<path d="M70.985 37.6628C70.6774 38.3918 70.2184 39.0464 69.6387 39.5831C69.9464 38.8542 70.4053 38.1995 70.985 37.6628V37.6628Z" fill="white"/>
<path d="M80.6672 50.6859C80.5164 51.0507 80.3248 51.3971 80.096 51.7184C79.8732 52.0438 79.613 52.3418 79.321 52.6062C79.6286 51.8773 80.0876 51.2226 80.6672 50.6859V50.6859Z" fill="white"/>
<path d="M72.7188 54.5913C72.3546 54.4417 72.0094 54.2491 71.6904 54.0177C71.3662 53.7942 71.0694 53.533 70.8062 53.2396C71.1691 53.3919 71.514 53.5843 71.8345 53.8132C72.1586 54.0369 72.4554 54.2981 72.7188 54.5913V54.5913Z" fill="white"/>
<path d="M76.1962 43.1693C76.8073 44.0122 77.4382 44.8352 78.0641 45.6632C77.9051 45.2442 77.766 44.8203 77.6468 44.3913H77.6766C77.8008 44.7205 77.9449 45.0447 78.0641 45.3889L78.243 45.8876C78.2584 45.9217 78.2716 45.9567 78.2827 45.9924C78.7795 46.6358 79.2763 47.2792 79.7333 47.9376C80.2947 48.7257 80.8362 49.5237 81.3826 50.3218C81.9291 51.1198 82.4805 52.1124 83.0717 52.9154C83.1263 52.9853 82.0781 53.4142 81.9638 53.4691C81.8496 53.5239 81.79 53.4292 81.8993 53.3943C82.0086 53.3593 82.8431 52.8456 82.8531 52.8356C82.3066 52.0276 81.6757 51.2844 81.1044 50.5013C80.5331 49.7183 79.9668 48.9352 79.4154 48.1421C78.2976 46.5261 77.2742 44.8502 76.1614 43.2292L76.1962 43.1693Z" fill="#263238"/>
<path d="M68.6352 48.7955C68.8091 49.1347 68.9979 49.4689 69.132 49.818L69.3208 50.252C69.0575 49.01 68.824 47.7581 68.5508 46.5161C69.0774 48.5112 69.6089 50.5512 70.0958 52.5763C70.5578 54.5115 71.1191 56.4667 71.3874 58.4419C71.7338 58.2893 72.0929 58.1675 72.4604 58.0778C72.0916 58.3175 71.6944 58.5102 71.2781 58.6514C70.6793 56.6429 70.1818 54.6052 69.7878 52.5463C69.6636 51.9877 69.5493 51.4291 69.4301 50.8704C69.3009 50.5313 69.1469 50.2071 68.9929 49.8729C68.8389 49.5387 68.6998 49.1646 68.5607 48.8105C68.5905 48.7905 68.6253 48.7706 68.6352 48.7955Z" fill="#263238"/>
<path d="M71.6706 56.5715C73.2603 55.6737 79.9022 52.2221 81.3876 51.5837C81.4919 51.5388 81.5466 51.5837 81.4423 51.6535C78.2895 53.4929 75.039 55.1579 71.7053 56.6413C71.6656 56.6513 71.6258 56.5964 71.6706 56.5715Z" fill="#263238"/>
<path d="M253.706 187.7H102.347L124.23 63.0804H275.589L253.706 187.7Z" fill="#FFC727"/>
<path d="M176.034 50.1721H126.5L124.23 63.0805H177.246L176.034 50.1721Z" fill="#FFC727"/>
<g opacity="0.1">
<path opacity="0.1" d="M253.706 187.7H102.347L124.23 63.0804H275.589L253.706 187.7Z" fill="black"/>
<path opacity="0.1" d="M176.034 50.1721H126.5L124.23 63.0805H177.246L176.034 50.1721Z" fill="black"/>
</g>
<path d="M121.155 55.4392C120.824 54.0119 120.824 52.5272 121.155 51.0999C121.486 52.5272 121.486 54.0119 121.155 55.4392V55.4392Z" fill="#263238"/>
<path d="M116.753 56.7161C116.248 56.1895 115.812 55.5994 115.457 54.9604C115.085 54.3348 114.792 53.6645 114.587 52.9653C115.095 53.4889 115.531 54.0775 115.884 54.716C116.256 55.3439 116.548 56.0158 116.753 56.7161V56.7161Z" fill="#263238"/>
<path d="M113.574 60.033C112.178 59.6068 110.898 58.8645 109.833 57.8633C110.53 58.0665 111.197 58.3582 111.82 58.7312C112.457 59.0898 113.046 59.5272 113.574 60.033V60.033Z" fill="#263238"/>
<path d="M112.461 64.502C111.04 64.8345 109.561 64.8345 108.139 64.502C109.561 64.1694 111.04 64.1694 112.461 64.502V64.502Z" fill="#263238"/>
<path d="M113.753 68.9211C113.226 69.4264 112.639 69.8637 112.004 70.2229C111.381 70.5959 110.714 70.8876 110.017 71.0908C110.542 70.583 111.129 70.1454 111.766 69.789C112.388 69.4142 113.056 69.1225 113.753 68.9211V68.9211Z" fill="#263238"/>
<path d="M117.051 72.1084C116.629 73.5121 115.889 74.799 114.89 75.8692C115.093 75.1691 115.385 74.4984 115.76 73.8741C116.114 73.2328 116.548 72.6395 117.051 72.1084V72.1084Z" fill="#263238"/>
<path d="M121.503 73.2107C121.676 73.9206 121.759 74.6495 121.751 75.3804C121.762 76.1113 121.678 76.8406 121.503 77.5501C121.325 76.841 121.241 76.1114 121.254 75.3804C121.246 74.6495 121.329 73.9206 121.503 73.2107V73.2107Z" fill="#263238"/>
<path d="M125.904 71.9587C126.41 72.4853 126.846 73.0755 127.201 73.7144C127.574 74.3389 127.865 75.0096 128.065 75.7095C127.066 74.6393 126.327 73.3524 125.904 71.9487V71.9587Z" fill="#263238"/>
<path d="M129.079 68.6169C129.776 68.8183 130.444 69.11 131.066 69.4848C131.702 69.8412 132.29 70.2788 132.814 70.7866C132.117 70.5853 131.449 70.2935 130.827 69.9188C130.191 69.5624 129.603 69.1248 129.079 68.6169V68.6169Z" fill="#263238"/>
<path d="M130.176 64.1479C131.6 63.8154 133.08 63.8154 134.503 64.1479C133.08 64.4803 131.6 64.4803 130.176 64.1479V64.1479Z" fill="#263238"/>
<path d="M128.905 59.7288C129.431 59.2239 130.018 58.7882 130.653 58.4319C131.274 58.0536 131.942 57.76 132.64 57.5591C131.575 58.5617 130.293 59.3041 128.895 59.7288H128.905Z" fill="#263238"/>
<path d="M125.601 56.5415C125.806 55.843 126.096 55.1728 126.465 54.5463C126.82 53.9074 127.256 53.3173 127.762 52.7906C127.562 53.4906 127.271 54.1613 126.898 54.7858C126.543 55.4247 126.107 56.0148 125.601 56.5415V56.5415Z" fill="#263238"/>
<path d="M253.482 187.7H101.795L80.2599 67.6044H231.947L253.482 187.7Z" fill="#FFC727"/>
<path d="M243.418 133.962C243.74 133.892 244.063 133.817 244.381 133.737" stroke="#263238" stroke-miterlimit="10"/>
<path d="M246.289 133.169C253.89 130.59 260.253 124.59 260.85 117.577C262.171 102.115 243.418 93.5758 245.355 75.7096C247.203 58.6663 265.008 57.4493 272.146 59.8036C280.03 62.4072 277.328 70.0135 270.189 69.0309C257.814 67.3301 250.035 53.8232 255.912 38.5007C260.303 27.0538 271.252 22.7344 275.698 21.4176" stroke="#263238" stroke-miterlimit="10" stroke-dasharray="4 4"/>
<path d="M276.657 21.1532C277.268 20.9936 277.621 20.9287 277.621 20.9287" stroke="#263238" stroke-miterlimit="10"/>
<path d="M285.5 18.1705C284.233 14.2301 275.748 15.6467 277.402 20.799C279.057 25.9514 286.767 22.1158 285.5 18.1705Z" fill="#263238"/>
<path d="M272.787 16.5944C272.852 14.8636 275.246 13.5319 278.634 14.1454C282.022 14.7589 285.207 17.0532 285.207 17.0532C285.207 17.0532 281.863 19.0883 278.441 19.4623C275.018 19.8364 272.723 18.3201 272.787 16.5944Z" fill="#EBEBEB"/>
<path d="M285.207 17.0432C283.448 17.0432 281.694 16.9933 279.941 16.9385C278.187 16.8836 276.429 16.7938 274.675 16.6542C276.434 16.6542 278.192 16.6991 279.946 16.7539C281.699 16.8088 283.458 16.8986 285.207 17.0432Z" fill="#263238"/>
<path d="M276.19 15.0531C277.189 15.5326 278.13 16.1232 278.997 16.8138C278.497 16.5784 278.013 16.3119 277.546 16.0157C277.076 15.7217 276.623 15.4002 276.19 15.0531V15.0531Z" fill="#263238"/>
<path d="M280.795 16.8787C279.897 17.6099 278.922 18.242 277.889 18.764C278.792 18.0319 279.772 17.3998 280.81 16.8787H280.795Z" fill="#263238"/>
<path d="M281.307 15.906C281.808 16.1477 282.247 16.5028 282.589 16.9435C282.338 16.8247 282.103 16.6756 281.888 16.4995C281.673 16.3246 281.478 16.1255 281.307 15.906V15.906Z" fill="#263238"/>
<path d="M276.016 26.8442C277.074 28.2108 279.792 27.8817 282.181 25.3977C284.571 22.9138 285.838 19.178 285.838 19.178C285.838 19.178 281.923 19.4772 278.937 21.1731C275.952 22.8689 274.953 25.4726 276.016 26.8442Z" fill="#EBEBEB"/>
<path d="M285.838 19.178C284.407 20.1755 283.016 21.2828 281.62 22.3552C280.224 23.4276 278.858 24.5349 277.522 25.6771C278.952 24.6795 280.343 23.5772 281.734 22.5048C283.125 21.4325 284.481 20.3252 285.838 19.178Z" fill="#263238"/>
<path d="M279.668 26.0711C279.933 25.5866 280.17 25.087 280.378 24.5748C280.589 24.0612 280.769 23.5348 280.915 22.9987C280.648 23.4827 280.411 23.9824 280.204 24.495C279.995 25.0094 279.816 25.5357 279.668 26.0711Z" fill="#263238"/>
<path d="M282.36 21.9013C281.198 21.8389 280.032 21.9008 278.883 22.0859C279.462 22.1208 280.042 22.1208 280.622 22.0859C281.204 22.0573 281.785 21.9957 282.36 21.9013V21.9013Z" fill="#263238"/>
<path d="M283.319 22.3951C283.452 22.1488 283.555 21.8877 283.627 21.6171C283.701 21.3484 283.744 21.0724 283.756 20.7941C283.492 21.2878 283.343 21.8352 283.319 22.3951V22.3951Z" fill="#263238"/>
<path d="M285.5 18.1705C285.219 18.262 284.918 18.2678 284.634 18.1872C284.35 18.1066 284.097 17.9433 283.905 17.7179C283.714 17.4925 283.594 17.2151 283.559 16.921C283.525 16.6268 283.579 16.3291 283.713 16.0654C283.847 15.8018 284.057 15.5842 284.314 15.4401C284.572 15.2959 284.867 15.2319 285.161 15.2559C285.455 15.28 285.735 15.3911 285.966 15.5752C286.197 15.7593 286.369 16.0081 286.459 16.2901C286.579 16.6671 286.546 17.0767 286.366 17.4292C286.187 17.7816 285.875 18.0482 285.5 18.1705Z" fill="#455A64"/>
<path d="M286.414 21.0185C286.134 21.1096 285.833 21.1152 285.549 21.0345C285.265 20.9539 285.012 20.7907 284.821 20.5655C284.63 20.3403 284.509 20.0632 284.475 19.7693C284.441 19.4755 284.494 19.1779 284.628 18.9144C284.762 18.6509 284.971 18.4331 285.228 18.2888C285.485 18.1444 285.779 18.0798 286.073 18.1032C286.367 18.1266 286.647 18.2369 286.878 18.4203C287.11 18.6036 287.282 18.8517 287.373 19.1331C287.433 19.3201 287.456 19.5172 287.441 19.7132C287.425 19.9092 287.371 20.1002 287.282 20.2753C287.193 20.4504 287.071 20.6061 286.922 20.7337C286.773 20.8612 286.6 20.958 286.414 21.0185V21.0185Z" fill="#455A64"/>
<path d="M123.544 19.7466C123.306 22.0376 122.439 24.2171 121.039 26.0419C119.639 27.8667 117.762 29.265 115.616 30.0808C113.471 30.8966 111.142 31.0978 108.889 30.6619C106.636 30.2261 104.548 29.1703 102.858 27.6124L96.6636 28.5251L99.7635 23.1483C99.0546 21.3988 98.7522 19.5101 98.8791 17.6256C99.0061 15.7412 99.5591 13.9105 100.496 12.2728C101.433 10.6351 102.73 9.23329 104.287 8.17395C105.845 7.11461 107.622 6.42557 109.485 6.15917C111.347 5.89277 113.245 6.05602 115.035 6.63651C116.826 7.217 118.46 8.19947 119.816 9.50929C121.171 10.8191 122.211 12.4218 122.857 14.1957C123.504 15.9696 123.738 17.868 123.544 19.7466V19.7466Z" fill="white"/>
<path d="M123.544 19.7466C123.311 22.0364 122.452 24.2167 121.06 26.0462C120.381 26.9714 119.561 27.7843 118.631 28.4553C117.722 29.1514 116.718 29.714 115.651 30.1262C114.582 30.5485 113.46 30.8172 112.317 30.9242C111.746 30.9757 111.171 30.9874 110.598 30.9592C110.023 30.9443 109.45 30.8843 108.884 30.7796C106.601 30.3578 104.48 29.306 102.759 27.742L102.903 27.7869L96.7182 28.7396L96.2662 28.8094L96.4947 28.4104L99.5747 23.0236V23.2381C98.8479 21.4562 98.5389 19.5305 98.6716 17.6096C98.8042 15.6888 99.375 13.8243 100.34 12.1602C101.303 10.5014 102.628 9.08273 104.215 8.01038C105.799 6.95226 107.601 6.26797 109.486 6.00882C111.371 5.74968 113.29 5.9224 115.099 6.51404C116.889 7.12544 118.52 8.13089 119.873 9.45684C121.223 10.7795 122.255 12.3935 122.892 14.1763C123.528 15.9592 123.751 17.8642 123.544 19.7466ZM123.544 19.7466C123.745 17.8735 123.514 15.979 122.87 14.2096C122.226 12.4401 121.185 10.843 119.828 9.54157C118.472 8.2401 116.835 7.26909 115.045 6.70351C113.255 6.13793 111.36 5.9929 109.505 6.27962C107.669 6.55246 105.92 7.24531 104.394 8.30466C102.88 9.37233 101.615 10.7577 100.688 12.3647C99.7742 13.9753 99.2358 15.7726 99.1127 17.6218C98.9918 19.4836 99.2906 21.3487 99.9871 23.0785L100.032 23.1882L99.9721 23.2929L96.8524 28.6598L96.6338 28.3306L102.834 27.4577H102.918L102.978 27.5126C104.635 29.0613 106.689 30.1165 108.909 30.5601C109.463 30.6733 110.024 30.7417 110.588 30.7646C111.152 30.8045 111.718 30.8045 112.282 30.7646C113.413 30.6731 114.527 30.4264 115.591 30.0314C116.658 29.6415 117.662 29.0971 118.572 28.4154C119.498 27.7498 120.318 26.9477 121.006 26.0362C122.415 24.2156 123.294 22.0385 123.544 19.7466Z" fill="#263238"/>
<path d="M105.178 24.2506C105.169 24.0855 105.193 23.9202 105.25 23.7649C105.307 23.6096 105.395 23.4677 105.508 23.348C105.622 23.2282 105.759 23.1332 105.911 23.0689C106.063 23.0045 106.226 22.9721 106.391 22.9738C106.728 22.9738 107.051 23.1083 107.29 23.3478C107.528 23.5872 107.662 23.912 107.662 24.2506C107.662 24.5893 107.528 24.9141 107.29 25.1535C107.051 25.393 106.728 25.5275 106.391 25.5275C106.226 25.5292 106.063 25.4968 105.911 25.4324C105.759 25.368 105.622 25.273 105.508 25.1533C105.395 25.0336 105.307 24.8917 105.25 24.7364C105.193 24.5811 105.169 24.4158 105.178 24.2506V24.2506ZM105.675 21.3029L105.387 11.4071H107.374L107.086 21.3029H105.675Z" fill="#FFC727"/>
<path d="M109.903 24.2506C109.893 24.0859 109.918 23.921 109.974 23.7661C110.03 23.6111 110.118 23.4695 110.231 23.3498C110.344 23.2301 110.481 23.135 110.632 23.0704C110.783 23.0057 110.946 22.9728 111.11 22.9738C111.447 22.9738 111.771 23.1083 112.009 23.3478C112.248 23.5872 112.382 23.912 112.382 24.2506C112.382 24.5893 112.248 24.9141 112.009 25.1535C111.771 25.393 111.447 25.5275 111.11 25.5275C110.946 25.5285 110.783 25.4956 110.632 25.4309C110.481 25.3662 110.344 25.2711 110.231 25.1515C110.118 25.0318 110.03 24.8901 109.974 24.7352C109.918 24.5803 109.893 24.4153 109.903 24.2506V24.2506ZM110.4 21.3029L110.126 11.4071H112.113L111.825 21.3029H110.4Z" fill="#FFC727"/>
<path d="M114.622 24.2506C114.613 24.0855 114.637 23.9202 114.694 23.7649C114.751 23.6096 114.839 23.4677 114.952 23.348C115.066 23.2282 115.203 23.1332 115.355 23.0689C115.506 23.0045 115.67 22.9721 115.834 22.9738C116.172 22.9738 116.495 23.1083 116.734 23.3478C116.972 23.5872 117.106 23.912 117.106 24.2506C117.106 24.5893 116.972 24.9141 116.734 25.1535C116.495 25.393 116.172 25.5275 115.834 25.5275C115.67 25.5292 115.506 25.4968 115.355 25.4324C115.203 25.368 115.066 25.273 114.952 25.1533C114.839 25.0336 114.751 24.8917 114.694 24.7364C114.637 24.5811 114.613 24.4158 114.622 24.2506ZM115.119 21.3029L114.831 11.4071H116.818L116.535 21.3029H115.119Z" fill="#FFC727"/>
</g>
<defs>
<clipPath id="clip0_5937_195985">
<rect width="304" height="200" fill="white"/>
</clipPath>
</defs>
</svg>
